# xmcd
#
# Track frame offsets:
#	150
#	17332
#	32972
#	50810
#	69282
#	87802
#	101040
#	116432
#	134400
#	149095
#	160077
#	174630
#
# Disc length: 2560 seconds
#
# Revision: 0
# Processed by: cddbd v1.5.1PL0 Copyright (c) Steve Scherf et al.
# Submitted via: EasyCDDAExtractor 7.1.2.1
#
DISCID=a409fe0c
DTITLE=Collin Raye - Epic Hits Disc
DYEAR=1996
DGENRE=Country
TTITLE0=Love Remains
TTITLE1=I Think About You
TTITLE2=Not That Different
TTITLE3=One Boy, One Girl
TTITLE4=If I Were You
TTITLE5=My Kind Of Girl
TTITLE6=Man Of My Word
TTITLE7=Little Rock
TTITLE8=That Was a River
TTITLE9=Every Second
TTITLE10=In This Life
TTITLE11=Love, Me
EXTD=
EXTT0=
EXTT1=
EXTT2=
EXTT3=
EXTT4=
EXTT5=
EXTT6=
EXTT7=
EXTT8=
EXTT9=
EXTT10=
EXTT11=
PLAYORDER=
